<?xml version="1.0" standalone="no"?><svg xmlns="http://www.w3.org/2000/svg" viewBox="0 0 1440 320"><path fill="#a2d9ff" fill-opacity="1" d="M0,128L40,128C80,128,160,128,240,128C320,128,400,128,480,144C560,160,640,192,720,208C800,224,880,224,960,186.7C1040,149,1120,75,1200,64C1280,53,1360,107,1400,133.3L1440,160L1440,320L1400,320C1360,320,1280,320,1200,320C1120,320,1040,320,960,320C880,320,800,320,720,320C640,320,560,320,480,320C400,320,320,320,240,320C160,320,80,320,40,320L0,320Z"></path></svg>